<svg width="101.115" height="43.381" viewBox="0 0 101.115 43.381" xmlns="http://www.w3.org/2000/svg"><g id="svgGroup" stroke-linecap="round" fill-rule="evenodd" font-size="9pt" stroke="#000" stroke-width="0mm" fill="#000" style="stroke:#000;stroke-width:0mm;fill:#000"><path d="M 30.825 35.596 L 33.075 25.651 L 32.895 25.651 A 8.579 8.579 0 0 1 30.98 27.619 A 7.881 7.881 0 0 1 29.948 28.261 A 8.091 8.091 0 0 1 26.29 29.159 A 9.441 9.441 0 0 1 26.145 29.161 Q 23.535 29.161 21.555 27.766 A 8.231 8.231 0 0 1 19.196 25.162 A 10.73 10.73 0 0 1 18.518 23.783 A 13.809 13.809 0 0 1 17.67 20.656 A 18.879 18.879 0 0 1 17.46 17.776 A 19.638 19.638 0 0 1 18.481 11.384 A 18.084 18.084 0 0 1 19.62 8.753 Q 21.78 4.681 25.56 2.341 Q 29.34 0.001 33.885 0.001 A 14.235 14.235 0 0 1 36.3 0.193 Q 37.621 0.42 38.682 0.918 A 7.157 7.157 0 0 1 39.938 1.666 A 5.284 5.284 0 0 1 42.13 5.507 A 6.9 6.9 0 0 1 42.165 6.211 Q 42.165 7.836 41.499 8.921 A 3.749 3.749 0 0 1 41.22 9.316 A 2.998 2.998 0 0 1 39.05 10.473 A 3.783 3.783 0 0 1 38.745 10.486 Q 37.89 10.486 37.148 10.126 Q 36.405 9.766 35.91 9.091 A 3.244 3.244 0 0 0 36.615 8.441 Q 36.984 7.992 37.283 7.358 A 5.839 5.839 0 0 0 37.784 5.745 A 5.254 5.254 0 0 0 37.845 4.951 Q 37.845 3.601 37.058 2.858 Q 36.27 2.116 34.83 2.116 Q 32.361 2.116 30.053 4.19 A 12.086 12.086 0 0 0 29.79 4.433 Q 27.36 6.751 25.875 10.486 Q 24.39 14.221 24.39 18.316 A 17.009 17.009 0 0 0 24.485 20.179 Q 24.711 22.218 25.47 23.468 Q 26.55 25.246 28.575 25.246 A 4.53 4.53 0 0 0 31.425 24.218 Q 32.068 23.716 32.656 22.966 A 9.777 9.777 0 0 0 32.873 22.681 Q 34.142 20.937 35.068 18.113 A 33.026 33.026 0 0 0 35.865 15.211 L 41.175 15.256 L 37.89 30.376 A 39.674 39.674 0 0 1 36.93 34.043 Q 35.763 37.719 34.091 39.89 A 10.96 10.96 0 0 1 33.818 40.231 A 8.395 8.395 0 0 1 27.708 43.357 A 10.616 10.616 0 0 1 27 43.381 Q 23.715 43.381 21.713 41.693 A 5.444 5.444 0 0 1 19.725 37.725 A 7.17 7.17 0 0 1 19.71 37.261 Q 19.71 35.551 20.52 34.111 Q 21.33 32.671 22.725 31.838 Q 24.12 31.006 25.785 31.006 A 5.574 5.574 0 0 1 26.97 31.125 Q 27.775 31.3 28.383 31.732 A 3.437 3.437 0 0 1 28.553 31.861 A 2.721 2.721 0 0 1 29.599 33.833 A 3.477 3.477 0 0 1 29.61 34.111 Q 29.61 34.936 29.321 35.498 A 1.998 1.998 0 0 1 29.115 35.821 A 2.625 2.625 0 0 0 28.362 35.149 A 3.302 3.302 0 0 0 28.013 34.966 Q 27.315 34.651 26.55 34.651 A 3.301 3.301 0 0 0 25.481 34.817 A 2.786 2.786 0 0 0 24.345 35.551 Q 23.49 36.451 23.49 37.891 A 4.067 4.067 0 0 0 23.617 38.933 A 3.014 3.014 0 0 0 24.323 40.231 A 2.714 2.714 0 0 0 26.298 41.129 A 3.446 3.446 0 0 0 26.415 41.131 A 3.221 3.221 0 0 0 28.715 40.174 A 4.686 4.686 0 0 0 29.115 39.736 Q 30.24 38.341 30.825 35.596 Z M 89.145 17.101 L 85.545 34.066 L 79.065 34.066 L 85.185 5.446 L 91.845 4.546 L 89.64 14.941 L 90 14.941 A 4.899 4.899 0 0 0 92.865 14.01 A 6.284 6.284 0 0 0 93.24 13.726 Q 94.725 12.511 95.558 10.688 A 9.453 9.453 0 0 0 96.219 8.715 A 7.745 7.745 0 0 0 96.39 7.111 Q 96.39 5.041 95.153 3.713 A 3.902 3.902 0 0 0 93.431 2.659 Q 92.807 2.462 92.051 2.407 A 8.39 8.39 0 0 0 91.44 2.386 A 17.256 17.256 0 0 0 88.221 2.672 A 12.993 12.993 0 0 0 85.05 3.691 Q 82.305 4.996 80.798 7.471 Q 79.29 9.946 79.29 13.321 A 13.878 13.878 0 0 0 79.31 14.09 Q 79.35 14.808 79.471 15.264 A 2.12 2.12 0 0 0 79.605 15.638 A 22.582 22.582 0 0 1 79.679 15.792 Q 79.872 16.2 79.91 16.332 A 0.195 0.195 0 0 1 79.92 16.381 Q 77.49 16.381 76.298 15.368 A 3.035 3.035 0 0 1 75.432 14.102 Q 75.238 13.591 75.159 12.953 A 7.655 7.655 0 0 1 75.105 12.016 Q 75.105 9.206 77.354 6.546 A 13.573 13.573 0 0 1 77.468 6.413 A 16.677 16.677 0 0 1 81.653 2.973 A 20.498 20.498 0 0 1 83.52 2.003 A 18.66 18.66 0 0 1 88.133 0.553 A 16.345 16.345 0 0 1 90.9 0.316 A 19.212 19.212 0 0 1 93.279 0.455 Q 95.136 0.687 96.57 1.306 A 9.726 9.726 0 0 1 98.227 2.208 Q 99.318 2.956 99.99 3.938 Q 101.115 5.581 101.115 7.516 A 7.371 7.371 0 0 1 100.526 10.358 A 9.777 9.777 0 0 1 99.81 11.746 A 10.319 10.319 0 0 1 96.395 15.125 A 11.966 11.966 0 0 1 96.255 15.211 Q 97.57 15.591 98.287 16.358 A 3.027 3.027 0 0 1 98.663 16.853 Q 99.317 17.929 99.357 19.5 A 8.131 8.131 0 0 1 99.36 19.711 A 12.188 12.188 0 0 1 99.237 21.403 A 15.009 15.009 0 0 1 99.045 22.478 A 45.726 45.726 0 0 1 98.871 23.253 Q 98.593 24.441 98.173 25.997 A 126.863 126.863 0 0 1 98.145 26.101 Q 97.785 27.496 97.47 28.846 Q 97.155 30.196 97.155 31.096 A 3.876 3.876 0 0 0 97.305 32.189 A 3.357 3.357 0 0 0 97.628 32.941 A 2.719 2.719 0 0 0 98.22 33.657 A 2.425 2.425 0 0 0 98.91 34.066 Q 96.259 34.804 94.573 34.83 A 7.886 7.886 0 0 1 94.455 34.831 A 5.946 5.946 0 0 1 93.133 34.697 Q 90.945 34.196 90.945 31.816 A 8.13 8.13 0 0 1 91.001 30.893 Q 91.055 30.422 91.161 29.898 A 14.856 14.856 0 0 1 91.238 29.543 A 56.202 56.202 0 0 1 91.399 28.855 Q 91.628 27.909 91.959 26.654 A 172.989 172.989 0 0 1 92.07 26.236 Q 92.503 24.782 92.787 23.625 A 31.82 31.82 0 0 0 93.015 22.636 A 16.107 16.107 0 0 0 93.23 21.396 Q 93.311 20.781 93.327 20.231 A 9.069 9.069 0 0 0 93.33 19.981 A 5.048 5.048 0 0 0 93.21 18.826 Q 92.84 17.258 91.333 16.98 A 3.879 3.879 0 0 0 90.63 16.921 A 6.301 6.301 0 0 0 89.454 17.035 A 7.252 7.252 0 0 0 89.145 17.101 Z M 50.22 21.016 L 54.81 2.746 A 13.412 13.412 0 0 0 51.754 3.955 A 10.209 10.209 0 0 0 48.78 6.413 A 9.674 9.674 0 0 0 47.131 9.254 A 8.566 8.566 0 0 0 46.62 12.196 A 8.459 8.459 0 0 0 47.564 16.049 A 10.129 10.129 0 0 0 47.79 16.471 Q 45.898 16.471 44.631 15.785 A 4.342 4.342 0 0 1 43.808 15.211 A 4.101 4.101 0 0 1 42.515 12.927 A 6.135 6.135 0 0 1 42.39 11.656 A 7.535 7.535 0 0 1 43.407 7.923 A 10.907 10.907 0 0 1 44.753 6.053 A 15.179 15.179 0 0 1 48.306 3.123 A 20.043 20.043 0 0 1 51.03 1.756 Q 54.945 0.136 59.31 0.136 A 17.251 17.251 0 0 1 60.298 0.162 Q 60.781 0.19 61.194 0.247 A 7.463 7.463 0 0 1 61.83 0.361 L 56.34 21.151 A 27.065 27.065 0 0 0 55.881 23.123 Q 55.575 24.729 55.575 26.011 A 7.604 7.604 0 0 0 55.725 27.597 Q 56.225 29.929 58.385 30.238 A 4.938 4.938 0 0 0 59.085 30.286 Q 64.125 30.286 66.06 21.016 L 70.56 0.226 L 76.905 0.226 L 72.54 21.016 A 27.288 27.288 0 0 1 71.303 25.181 Q 69.886 28.791 67.568 31.006 Q 64.035 34.381 58.59 34.381 A 14.499 14.499 0 0 1 56.034 34.17 Q 54.65 33.922 53.559 33.381 A 6.779 6.779 0 0 1 51.863 32.198 A 6.928 6.928 0 0 1 50.057 29.185 Q 49.714 28.078 49.623 26.739 A 14.729 14.729 0 0 1 49.59 25.741 A 16.876 16.876 0 0 1 49.738 23.576 Q 49.895 22.361 50.22 21.016 Z M 3.96 34.066 L 10.485 3.511 A 10.49 10.49 0 0 0 7.563 5.253 A 9.3 9.3 0 0 0 5.828 7.223 A 9.782 9.782 0 0 0 4.407 10.825 A 13.443 13.443 0 0 0 4.185 13.321 A 13.878 13.878 0 0 0 4.205 14.09 Q 4.245 14.808 4.366 15.264 A 2.12 2.12 0 0 0 4.5 15.638 A 22.582 22.582 0 0 1 4.574 15.792 Q 4.767 16.2 4.805 16.332 A 0.195 0.195 0 0 1 4.815 16.381 Q 2.385 16.381 1.193 15.368 A 3.035 3.035 0 0 1 0.327 14.102 Q 0.133 13.591 0.054 12.953 A 7.655 7.655 0 0 1 0 12.016 Q 0 9.206 2.249 6.546 A 13.573 13.573 0 0 1 2.363 6.413 A 16.677 16.677 0 0 1 6.548 2.973 A 20.498 20.498 0 0 1 8.415 2.003 A 18.66 18.66 0 0 1 13.028 0.553 A 16.345 16.345 0 0 1 15.795 0.316 Q 16.277 0.316 17.076 0.368 A 48.142 48.142 0 0 1 17.595 0.406 L 10.44 34.066 L 3.96 34.066 Z" vector-effect="non-scaling-stroke"/></g></svg>